<svg xmlns="http://www.w3.org/2000/svg" viewBox="0 0 938.24 938.05"><defs><style>.cls-1{fill:#008aaa;}.cls-2{fill:#00b3ff;}.cls-3,.cls-4,.cls-5,.cls-6{fill:none;stroke-miterlimit:10;}.cls-3{stroke:#3fc6ff;}.cls-3,.cls-4{stroke-width:30px;}.cls-4,.cls-5,.cls-6{stroke:#81ea85;}.cls-5{stroke-width:10px;}.cls-6{stroke-linecap:round;stroke-width:8px;}</style></defs><g id="Layer_2" data-name="Layer 2"><path class="cls-1" d="M1694,1454c-76.35,170.09-248.45,277.25-433,270-178.08-7-336.78-119.28-404-286,90.76-53.54,169.28-67.86,234-65,142.49,6.3,202.25,95.22,355,114,93.28,11.47,178.38-8.49,249-37" transform="translate(-810.88 -800.99)"/><path class="cls-2" d="M1715,1397c-31.58-19.4-106.08-59.22-208-59-128.94.28-217.62,64.44-245,86a487.59,487.59,0,0,0,184,63c114.49,14.72,205.11-15.45,248-33Z" transform="translate(-810.88 -800.99)"/><path class="cls-3" d="M1734.12,1270c0,265.41-232.78,450.56-454,454-150.51,2.34-290.53-74.83-375.5-198.5-18-26.13-83.19-121.24-78.5-255.5,7.09-202.93,178.37-454,454-454C1530.86,816,1734.12,1019.25,1734.12,1270Z" transform="translate(-810.88 -800.99)"/><path class="cls-4" d="M1295,1524" transform="translate(-810.88 -800.99)"/><path class="cls-4" d="M1256,1489" transform="translate(-810.88 -800.99)"/><path class="cls-4" d="M1253,1445" transform="translate(-810.88 -800.99)"/><path class="cls-5" d="M1669,1744" transform="translate(-810.88 -800.99)"/><path class="cls-6" d="M1078.64,1166.78" transform="translate(-810.88 -800.99)"/><path class="cls-6" d="M1300.72,1049.26" transform="translate(-810.88 -800.99)"/><path class="cls-6" d="M1291.3,956" transform="translate(-810.88 -800.99)"/></g></svg>